# xmcd
# 
# Track frame offsets:
#     150
#     12782
#     30712
#     45215
#     65805
#     86870
#     100850
#     115795
#     133395
#     150680
#     160792
#     179302
#     196695
#     214810
#     235177
# 
# Disc length: 3330
# 
# Revision: 1
# Processed by: cddbd v1.5.2PL0 Copyright (c) Steve Scherf et al.
# Submitted via: fre:ac v1.1beta1pre5
# 
DISCID=c30d000f
DTITLE=Johanne Blouin - Until I Met You
DYEAR=2004
DGENRE=Jazz
TTITLE0=Until I Met You
TTITLE1=Since I Fell For You
TTITLE2=Deedles Blues
TTITLE3=You've Changed
TTITLE4=Besame Mucho
TTITLE5=At Last
TTITLE6=Cry Me A River
TTITLE7=Some Other Time
TTITLE8=Blues In The Night
TTITLE9=I Get A Kick Out Of You
TTITLE10=Bewitched, Bothered and Bewildered
TTITLE11=I Can't Make You Love Me
TTITLE12=Same As You
TTITLE13=Here's To Life
TTITLE14=Smile
EXTD=YEAR: 2004
EXTT0=
EXTT1=
EXTT2=
EXTT3=
EXTT4=
EXTT5=
EXTT6=
EXTT7=
EXTT8=
EXTT9=
EXTT10=
EXTT11=
EXTT12=
EXTT13=
EXTT14=
PLAYORDER=
